<svg width="50" height="48" xmlns="http://www.w3.org/2000/svg" xmlns:xlink="http://www.w3.org/1999/xlink"><use xlink:href="#path0_fill" fill="#FFF"/><defs><path id="path0_fill" fill-rule="evenodd" d="M24.61 0C11.012 0 0 11.019 0 24.61c0 10.875 7.05 20.097 16.827 23.348 1.23.231 1.681-.53 1.681-1.184 0-.584-.02-2.133-.03-4.183-6.846 1.484-8.29-3.302-8.29-3.302-1.12-2.84-2.738-3.6-2.738-3.6-2.229-1.525.173-1.494.173-1.494 2.47.172 3.77 2.535 3.77 2.535 2.193 3.763 5.76 2.676 7.167 2.046.221-1.591.855-2.676 1.558-3.291-5.465-.616-11.21-2.732-11.21-12.162 0-2.686.954-4.88 2.533-6.603-.277-.621-1.107-3.123.216-6.513 0 0 2.06-.66 6.767 2.522 1.969-.547 4.06-.818 6.152-.83 2.092.012 4.184.283 6.153.83 4.676-3.183 6.737-2.522 6.737-2.522 1.322 3.39.492 5.892.246 6.513 1.569 1.723 2.522 3.917 2.522 6.604 0 9.454-5.752 11.535-11.228 12.14.862.738 1.661 2.248 1.661 4.553 0 3.293-.03 5.939-.03 6.739 0 .646.43 1.415 1.691 1.169 9.846-3.228 16.89-12.457 16.89-23.316C49.219 11.02 38.2 0 24.61 0z"/></defs></svg>
