<svg width="60" height="48" xmlns="http://www.w3.org/2000/svg" xmlns:xlink="http://www.w3.org/1999/xlink"><use xlink:href="#path2_fill" fill="#FFF"/><defs><path id="path2_fill" d="M58.945 5.714a24.42 24.42 0 0 1-6.954 1.907A12.169 12.169 0 0 0 57.315.922a25.006 25.006 0 0 1-7.692 2.914A12.059 12.059 0 0 0 40.785 0C34.1 0 28.678 5.423 28.678 12.1c0 .959.11 1.88.313 2.766-10.063-.48-18.987-5.312-24.959-12.616-1.048 1.775-1.638 3.84-1.638 6.09 0 4.206 2.14 7.906 5.386 10.079a12.093 12.093 0 0 1-5.486-1.513v.148c0 5.865 4.169 10.764 9.713 11.878-1.018.273-2.088.42-3.19.42a11.93 11.93 0 0 1-2.25-.213c1.549 4.81 6.012 8.31 11.324 8.41a24.266 24.266 0 0 1-15.014 5.18c-.959 0-1.918-.056-2.877-.166C5.386 45.993 11.73 48 18.592 48c22.281 0 34.454-18.445 34.454-34.418 0-.516 0-1.032-.036-1.549a24.456 24.456 0 0 0 6.05-6.27l-.115-.049z"/></defs></svg>