<svg width="49" height="48" xmlns="http://www.w3.org/2000/svg" xmlns:xlink="http://www.w3.org/1999/xlink"><use xlink:href="#path3_fill" fill="#FFF"/><defs><path id="path3_fill" d="M48.07 16.352c-.011-.06-.02-.12-.035-.175l-.03-.099a1.31 1.31 0 0 0-.06-.15c-.01-.036-.03-.07-.043-.102l-.069-.136-.06-.096-.09-.12-.09-.09-.12-.09-.09-.06-.121-.09-.09-.061-.03-.03L25.196.347a2.053 2.053 0 0 0-2.285 0L.908 14.99l-.03.03-.09.069-.12.096-.076.081-.102.112-.072.09-.09.12c-.03.03-.06.06-.06.09l-.09.12-.03.12c-.03.03-.03.091-.06.151l-.03.09c-.03.06-.03.12-.03.18v.091C0 16.523 0 16.613 0 16.704V31.36c0 .09.006.18.018.27l.021.09a.82.82 0 0 0 .04.175l.03.1c.017.054.03.105.053.15l.045.099c0 .03.03.09.06.12l.06.09c.03.03.06.09.09.12l.061.091.09.09c.03.03.03.06.06.06l.12.09.09.06.03.03 21.98 14.673c.33.24.751.331 1.142.331.391 0 .782-.12 1.143-.36l22.012-14.58.03-.03.09-.066.12-.09.09-.079.106-.111.072-.09.09-.12.06-.097.06-.138.03-.108.06-.15.03-.09.06-.151V16.707c0-.09 0-.18-.03-.271l-.03-.09.088.006zM24.054 28.929l-7.312-4.89 7.312-4.888 7.313 4.889-7.313 4.889zM21.985 15.56l-8.96 5.992-7.234-4.84L21.985 5.919v9.642zM9.305 24.04l-5.17 3.457v-6.915l5.17 3.458zm3.72 2.49l8.96 5.992v9.651L5.79 31.38l7.234-4.84v-.01zm13.094 5.992l8.96-5.984 7.237 4.841-16.197 10.794v-9.651zm12.682-8.482l5.172-3.458v6.915L38.8 24.04zm-3.72-2.487l-8.959-5.992V5.91l16.194 10.794-7.234 4.84v.01z"/></defs></svg>