<svg width="48" height="48" xmlns="http://www.w3.org/2000/svg" xmlns:xlink="http://www.w3.org/1999/xlink"><use xlink:href="#path1_fill" fill="#FFF"/><defs><path id="path1_fill" fill-rule="evenodd" d="M24 48C10.77 48 0 37.23 0 24S10.77 0 24 0s24 10.77 24 24-10.77 24-24 24zm20.241-20.715c-.702-.222-6.345-1.905-12.771-.876 2.682 7.368 3.774 13.368 3.984 14.616 4.599-3.111 7.872-8.04 8.79-13.74h-.003zM32.01 42.9c-.306-1.8-1.5-8.064-4.38-15.54l-.132.042C15.936 31.431 11.79 39.45 11.418 40.2A20.365 20.365 0 0 0 24 44.532c2.841 0 5.55-.582 8.01-1.629V42.9zM8.769 37.74c.465-.798 6.09-10.11 16.665-13.53.27-.09.54-.168.81-.24a70.99 70.99 0 0 0-1.665-3.48C14.34 23.55 4.41 23.421 3.51 23.4l-.009.624a20.434 20.434 0 0 0 5.268 13.71v.006zM3.93 19.83c.921.015 9.366.051 18.954-2.496-3.396-6.036-7.059-11.115-7.599-11.856C9.549 8.184 5.265 13.47 3.933 19.833l-.003-.003zM19.2 4.104c.564.759 4.29 5.829 7.644 12 7.29-2.73 10.38-6.879 10.746-7.404A20.39 20.39 0 0 0 24 3.528c-1.65 0-3.261.198-4.8.57v.006zm20.67 6.966c-.435.582-3.87 4.986-11.448 8.082.48.975.93 1.968 1.359 2.97.15.351.3.705.441 1.056 6.822-.858 13.599.516 14.274.66a20.382 20.382 0 0 0-4.629-12.771l.003.003z"/></defs></svg>
